<svg xmlns="http://www.w3.org/2000/svg" viewBox="0 0 500 500"><g id="freepik--Floor--inject-5"><path id="freepik--floor--inject-5" d="M86.05,260.6c-90.54,52.28-90.54,137,0,189.3s237.34,52.28,327.89,0,90.54-137,0-189.3S176.6,208.33,86.05,260.6Z" style="fill:#fafafa"></path></g><g id="freepik--Plants--inject-5"><g id="freepik--plants--inject-5"><path d="M61.71,363.35a.42.42,0,0,1-.24-.25c-5.08-15.36-21.72-23.83-28.83-27.44-1.15-.59-2.06-1.05-2.65-1.4a7.77,7.77,0,0,1-4.18-6.64,6.75,6.75,0,0,1,3.81-5.72C35.45,318.68,47,324,55.83,334.1c12.43,14.1,11,26.67,10.94,26.8a.39.39,0,0,1-.22.31l-4.49,2.13-.16,0A.58.58,0,0,1,61.71,363.35Zm-6.52-28.74c-8.61-9.77-19.66-15.05-25.15-12a5.88,5.88,0,0,0-3.39,5,7,7,0,0,0,3.79,5.95c.57.34,1.46.8,2.6,1.38,7.12,3.62,23.72,12.07,29.08,27.46L66,360.59C66.09,358.92,66.49,347.44,55.19,334.61Z" style="fill:#BA68C8"></path><path d="M64.45,362.17h0a.39.39,0,0,0,.33-.47c-3.81-18.38-21.18-33.28-31-35.07a.42.42,0,0,0-.49.31.41.41,0,0,0,.33.47c9.71,1.77,26.72,17,30.34,34.45A.43.43,0,0,0,64.45,362.17Z" style="fill:#BA68C8"></path><path d="M66.38,361.25a.61.61,0,0,0,.18-.05l3-1.59a.4.4,0,0,0,.22-.31c0-.18,1.71-18.83-7.83-41.54C57.1,306.2,47.06,296,38.09,293.51a13.23,13.23,0,0,0-11.45,1.58,5.93,5.93,0,0,0-3,4.48c-.31,4.73,6.07,10.37,12.84,16.34,4.73,4.17,9.62,8.49,12.35,12.63a.44.44,0,0,0,.58.13.4.4,0,0,0,.13-.55c-2.78-4.23-7.72-8.59-12.49-12.8-6.61-5.83-12.86-11.34-12.57-15.7a5.15,5.15,0,0,1,2.62-3.89,12.38,12.38,0,0,1,10.72-1.45c8.75,2.42,18.56,12.42,23.33,23.78,8.93,21.24,7.94,38.87,7.79,41l-2.82,1.48A.39.39,0,0,0,66,361,.43.43,0,0,0,66.38,361.25Z" style="fill:#BA68C8"></path><path d="M64.65,349.94h0a.4.4,0,0,0,.36-.45c-4-28.81-25.83-48.08-31.64-51a.43.43,0,0,0-.57.17.39.39,0,0,0,.18.54c5.73,2.84,27.22,21.85,31.2,50.36A.4.4,0,0,0,64.65,349.94Z" style="fill:#BA68C8"></path></g><g id="freepik--plants--inject-5"><path d="M433.55,363.38l-.16,0-4.49-2.13a.39.39,0,0,1-.22-.31c0-.13-1.49-12.7,10.94-26.8,8.86-10.06,20.38-15.42,26.21-12.2a6.75,6.75,0,0,1,3.81,5.72,7.79,7.79,0,0,1-4.18,6.64c-.59.35-1.5.81-2.65,1.4-7.11,3.61-23.75,12.08-28.83,27.44a.42.42,0,0,1-.24.25A.58.58,0,0,1,433.55,363.38Zm-4.06-2.79,3.84,1.83c5.36-15.39,22-23.84,29.08-27.46,1.14-.58,2-1,2.6-1.38a7,7,0,0,0,3.79-5.95,5.88,5.88,0,0,0-3.39-5c-5.49-3-16.54,2.25-25.15,12C429,347.44,429.36,358.92,429.49,360.59Z" style="fill:#BA68C8"></path><path d="M431,362.17H431a.39.39,0,0,1-.33-.47c3.81-18.38,21.18-33.28,31-35.07a.42.42,0,0,1,.49.31.41.41,0,0,1-.33.47c-9.71,1.77-26.72,17-30.34,34.45A.43.43,0,0,1,431,362.17Z" style="fill:#BA68C8"></path><path d="M429.07,361.25a.53.53,0,0,1-.18-.05l-3-1.59a.4.4,0,0,1-.22-.31c0-.18-1.71-18.83,7.83-41.54,4.86-11.56,14.9-21.76,23.87-24.25a13.23,13.23,0,0,1,11.45,1.58,6,6,0,0,1,3,4.48c.31,4.73-6.08,10.37-12.84,16.34-4.73,4.17-9.62,8.49-12.35,12.63a.44.44,0,0,1-.58.13.39.39,0,0,1-.13-.55c2.78-4.23,7.72-8.59,12.49-12.8,6.61-5.83,12.86-11.34,12.57-15.7a5.15,5.15,0,0,0-2.62-3.89,12.38,12.38,0,0,0-10.72-1.45c-8.75,2.42-18.56,12.42-23.33,23.78-8.93,21.24-7.94,38.87-7.79,41l2.82,1.48a.39.39,0,0,1,.16.54A.43.43,0,0,1,429.07,361.25Z" style="fill:#BA68C8"></path><path d="M430.8,349.94h0a.4.4,0,0,1-.36-.45c4-28.81,25.83-48.08,31.64-51a.43.43,0,0,1,.57.17.39.39,0,0,1-.18.54c-5.73,2.84-27.22,21.85-31.2,50.36A.4.4,0,0,1,430.8,349.94Z" style="fill:#BA68C8"></path></g></g><g id="freepik--Shadows--inject-5"><path id="freepik--Shadow--inject-5" d="M424.09,342.9c33,19.34,32.73,50.32-.5,69.19s-86.88,18.48-119.84-.86-32.73-50.32.5-69.19S391.13,323.55,424.09,342.9Z" style="fill:#e0e0e0"></path><path id="freepik--shadow--inject-5" d="M190.7,344.3c33,19.34,32.74,50.32-.49,69.19S103.32,432,70.37,412.64s-32.74-50.32.49-69.19S157.75,325,190.7,344.3Z" style="fill:#e0e0e0"></path></g><g id="freepik--hearts-2--inject-5"><g id="freepik--broken-heart--inject-5"><path d="M439.19,178l2.34,5.71-2.88,5-4.47-5.05-.67-.83c-3-3.65-9.95-12.2-6.85-22A9.87,9.87,0,0,1,445.83,165l-4.05,3.78,2.66,5.76Z" style="fill:#f0f0f0"></path><path d="M467.38,173.74c-3.12,9.87-13.45,13-17.86,14.32-.29.09-.56.16-.78.24l-6.56,1.55,2.87-5-2.34-5.7,5.25-3.5-2.65-5.76,4-3.79a9.87,9.87,0,0,1,18,7.68Z" style="fill:#f0f0f0"></path></g><g id="freepik--broken-heart--inject-5"><path d="M411.5,77.89l6.6,4.61.41,7.57L410,87.69c-.36-.13-.81-.28-1.33-.44-5.85-1.91-19.54-6.38-23.06-19.32a12.89,12.89,0,0,1,23.94-9.06l-1.77,7,7,4.46Z" style="fill:#f0f0f0"></path><path d="M439.46,53.3c3.55,13-5.59,23.76-9.5,28.34l-.69.82-6.11,6.35-.4-7.57-6.6-4.62,3.29-7.55-7-4.45,1.76-7a12.89,12.89,0,0,1,25.23-4.31Z" style="fill:#f0f0f0"></path></g><g id="freepik--broken-heart--inject-5"><path d="M58.13,174l-2.34,5.7,2.88,5,4.47-5c.18-.24.41-.52.67-.84,3-3.65,10-12.2,6.85-22A9.87,9.87,0,0,0,51.5,161l4,3.78-2.66,5.77Z" style="fill:#f0f0f0"></path><path d="M29.94,169.78c3.12,9.87,13.45,13,17.86,14.32l.78.24,6.57,1.56-2.88-5.05,2.34-5.7-5.25-3.5L52,165.89l-4-3.79a9.87,9.87,0,0,0-18,7.68Z" style="fill:#f0f0f0"></path></g><g id="freepik--broken-heart--inject-5"><path d="M70.45,73l-7.13,3.9-1.24,7.56L70.85,83l1.38-.3c6.08-1.27,20.33-4.25,25.28-16.85a13,13,0,0,0-23-11.73l1,7.23L68,65Z" style="fill:#f0f0f0"></path><path d="M45.09,45.22c-5,12.71,3,24.48,6.41,29.5l.61.9,5.43,7,1.24-7.56,7.13-3.9-2.47-7.95,7.5-3.7-1-7.23a13,13,0,0,0-24.85-7.11Z" style="fill:#f0f0f0"></path></g></g><g id="freepik--heart-1--inject-5"><g id="freepik--Heart--inject-5"><path id="freepik--heart--inject-5" d="M244.47,317.76,201.41,292c-1.77-1.26-4-2.73-6.63-4.43-29.29-19.24-97.91-64.31-97.91-140.77,0-39.64,32.8-71.77,73.27-71.77,35.56,0,65.2,24.82,71.86,57.74C248.66,99.82,278.3,75,313.86,75c40.47,0,73.27,32.13,73.27,71.77,0,77.1-66.27,122.39-94.57,141.73-1.88,1.29-3.58,2.45-5,3.48Z" style="fill:#BA68C8"></path><path id="freepik--heart--inject-5" d="M244.47,317.76,201.41,292c-1.77-1.26-4-2.73-6.63-4.43-29.29-19.24-97.91-64.31-97.91-140.77,0-39.64,32.8-71.77,73.27-71.77,35.56,0,65.2,24.82,71.86,57.74C248.66,99.82,278.3,75,313.86,75c40.47,0,73.27,32.13,73.27,71.77,0,77.1-66.27,122.39-94.57,141.73-1.88,1.29-3.58,2.45-5,3.48Z" style="fill:#fff;opacity:0.30000000000000004"></path></g></g><g id="freepik--Lines--inject-5"><g id="freepik--lines--inject-5"><path d="M265.38,262.24a57.85,57.85,0,1,1,57.8-57.85A57.89,57.89,0,0,1,265.38,262.24Zm0-114.8a57,57,0,1,0,56.91,56.95A57,57,0,0,0,265.38,147.44Z" style="fill:#37474f"></path><path d="M243.55,265.86a58.13,58.13,0,1,1,58.08-58.13A58.17,58.17,0,0,1,243.55,265.86Zm0-115.36a57.23,57.23,0,1,0,57.18,57.23A57.28,57.28,0,0,0,243.55,150.5Z" style="fill:#37474f"></path><path d="M218.9,267.29A58.13,58.13,0,1,1,277,209.17,58.16,58.16,0,0,1,218.9,267.29Zm0-115.35a57.23,57.23,0,1,0,57.18,57.23A57.28,57.28,0,0,0,218.9,151.94Z" style="fill:#37474f"></path><path d="M260.48,244.07a58.13,58.13,0,1,1,58.08-58.13A58.17,58.17,0,0,1,260.48,244.07Zm0-115.36a57.23,57.23,0,1,0,57.18,57.23A57.27,57.27,0,0,0,260.48,128.71Z" style="fill:#37474f"></path><path d="M251.2,247.79a58.13,58.13,0,1,1,58.09-58.12A58.17,58.17,0,0,1,251.2,247.79Zm0-115.35a57.23,57.23,0,1,0,57.19,57.23A57.27,57.27,0,0,0,251.2,132.44Z" style="fill:#37474f"></path><path d="M251.2,243.34a34.18,34.18,0,1,1,34.15-34.17A34.2,34.2,0,0,1,251.2,243.34Zm0-67.45a33.28,33.28,0,1,0,33.25,33.28A33.31,33.31,0,0,0,251.2,175.89Z" style="fill:#37474f"></path><path d="M231.6,218.62a30.9,30.9,0,1,1,30.87-30.89A30.92,30.92,0,0,1,231.6,218.62Zm0-60.89a30,30,0,1,0,30,30A30,30,0,0,0,231.6,157.73Z" style="fill:#37474f"></path><path d="M239.79,223a30.9,30.9,0,1,1,30.87-30.9A30.92,30.92,0,0,1,239.79,223Zm0-60.89a30,30,0,1,0,30,30A30,30,0,0,0,239.79,162.12Z" style="fill:#37474f"></path><path d="M221,206.54a30.9,30.9,0,1,1,30.87-30.89A30.92,30.92,0,0,1,221,206.54Zm0-60.89a30,30,0,1,0,30,30A30,30,0,0,0,221,145.65Z" style="fill:#37474f"></path><path d="M233.32,207.09a29.26,29.26,0,1,1,29.24-29.26A29.27,29.27,0,0,1,233.32,207.09Zm0-57.62a28.36,28.36,0,1,0,28.34,28.36A28.38,28.38,0,0,0,233.32,149.47Z" style="fill:#37474f"></path><path d="M263.66,211.25a34.17,34.17,0,1,1,34.15-34.17A34.2,34.2,0,0,1,263.66,211.25Zm0-67.44a33.27,33.27,0,1,0,33.25,33.27A33.3,33.3,0,0,0,263.66,143.81Z" style="fill:#37474f"></path><path d="M239.79,236a58.13,58.13,0,1,1,58.09-58.13A58.17,58.17,0,0,1,239.79,236Zm0-115.36A57.23,57.23,0,1,0,297,177.83,57.28,57.28,0,0,0,239.79,120.6Z" style="fill:#37474f"></path><path d="M218.9,244.07h0A58.13,58.13,0,1,1,277,185.94a57.67,57.67,0,0,1-58.08,58.13Zm0-115.36a57.23,57.23,0,0,0,0,114.46h0a57.23,57.23,0,0,0,0-114.46Z" style="fill:#37474f"></path><path d="M128.92,224.2l-.83-.55c8.45-12.78,25.69-18.35,41-13.26,19.9,6.62,34,6.08,38.73-1.49l.85.53c-5,8-19.52,8.69-39.9,1.91C153.88,206.38,137.13,211.79,128.92,224.2Z" style="fill:#37474f"></path><path d="M350.67,224.89c-8.2-12.41-24.95-17.82-39.82-12.87-20.38,6.79-34.92,6.09-39.9-1.9l.85-.53c4.71,7.57,18.83,8.11,38.73,1.48,15.29-5.09,32.52.49,41,13.26Z" style="fill:#37474f"></path></g></g><g id="freepik--character-2--inject-5"><g id="freepik--Character--inject-5"><path d="M361.25,257.89a29.37,29.37,0,0,0-12.86,10.25c-6.91,9.53-16.41,21.44-16.41,21.44l-2.38,29.81a17.06,17.06,0,0,0,7.16-3.89c9.61-8.11,26.85-26.56,26.85-26.56l5.5-33.52A55.92,55.92,0,0,0,361.25,257.89Z" style="fill:#ffbda7"></path><path d="M332,289.58A104.58,104.58,0,0,1,336,305s2.25-9.89-2-17.84Z" style="fill:#f0997a"></path><path d="M350.14,264.41c-3.67,4.33-13.14,16.86-16.89,21.86,2.21,7.36,10,14,17.19,17,7.72-7.7,13.83-14.24,13.83-14.24l5.29-34.58C359.47,255.13,354.77,259,350.14,264.41Z" style="fill:#455a64"></path><path d="M308,252.14c.37-2.23-2.58-3.39-3-5.36a1.6,1.6,0,0,1,2.07-1.89c1.33.3,2.23,1.45,3.3,2.21a11,11,0,0,0,4.21,1.71c3.14.65,6.67,2,7.78,5.37a11,11,0,0,0-2.25-.32C316.12,253.29,312.08,252.69,308,252.14Z" style="fill:#f0997a"></path><path d="M299,244.49c.22.35.43.71.63,1.06l.79,1.37c.12.23.23.46.34.69s.19.68.28.72c1.08.49,2.68.72,4.09,2.06s1.52,1.88,4.78,1.81c2.19,0,5.3-.75,7.86-.33s4.91,1.27,5.68,4.56.36,5.16,1.31,8.47c.72,2.5,2.28,8.19,6.49,20.1,4.74,13.37,5.29,19.43,5.29,19.43-.68,3.62-3.82,14.25-6.91,15-4.21,1-9.73-1.45-13.46-12.33-1.4-4.1-2-8.75-2.42-14.79-.31-4.91-.82-8.08-1.55-15.1-.66-6.37-1.45-9.9-2.76-12.06a16.56,16.56,0,0,0-5.9-5.49c-2.84-1.41-3.1-1-5.07-4.17-1.24-2.15-3.5-4.13-4.71-5.61A20.13,20.13,0,0,1,290.9,245a24.4,24.4,0,0,0-1.59-3.54,1.4,1.4,0,0,1-.34-.88.81.81,0,0,1,.37-.55,1.49,1.49,0,0,1,.65-.23c-.12,0-.69-.76-.78-.87-.22-.28-.4-.53-.65-.8a.57.57,0,0,1-.17-.68.6.6,0,0,1,.38-.23,3.1,3.1,0,0,1,1.88.08,9.6,9.6,0,0,1,2.13,1.41,1.09,1.09,0,0,0,.33.19,2.08,2.08,0,0,0,.5,0,2,2,0,0,1,1.38.64,23.28,23.28,0,0,1,1.74,2.22c.36.44.78.82,1.15,1.25A11.85,11.85,0,0,1,299,244.49Z" style="fill:#ffbda7"></path><path d="M302.51,250.53a5.57,5.57,0,0,0,2.28,1.23,8.2,8.2,0,0,0,2.2.28,6.65,6.65,0,0,0,2.18.39c1.67,0,3.66-.29,5.62-.4a7.61,7.61,0,0,1,3.81,2.16,8.49,8.49,0,0,1,1.22,1.89,21.72,21.72,0,0,1,.66,2.44,6.37,6.37,0,0,0-.22-2.45,6.07,6.07,0,0,0-1.17-2.2,6,6,0,0,0-4-1.85c3.64-.16,7.14.36,8.32,4.41-.46-3.57-4.15-4.91-7.34-5-3.06-.21-6.34,1.07-9.25,0a13.41,13.41,0,0,1-1.73-1.51,11.69,11.69,0,0,0-3.88-1.86,1.85,1.85,0,0,1-.09-.23,19.13,19.13,0,0,0-4-6c-1.07-1-1.79-3-3.49-3,1.69.22,2.25,2,3.28,3.16a19.17,19.17,0,0,1,3.84,6.11.87.87,0,0,0,.32.4c1.29.53,2.56.72,3.6,1.67a16.37,16.37,0,0,0,1.82,1.57l-.34-.08c-.41-.11-.82-.2-1.23-.32A18.44,18.44,0,0,1,302.51,250.53Zm-5.36-2.7a2.15,2.15,0,0,1-.75-.54,3.07,3.07,0,0,1-.31-.63,5.35,5.35,0,0,0-1.86-2.32,1.63,1.63,0,0,1-.85-1.08,7.32,7.32,0,0,0-1.52-2.11,2.91,2.91,0,0,0-.48-.45,1.06,1.06,0,0,0-.33-.18,7.09,7.09,0,0,1,1.46,1.68,10.52,10.52,0,0,1,.81,1.93l0,.09.11.07a9.92,9.92,0,0,1,.83.68,8,8,0,0,1,.73.8,6.7,6.7,0,0,1,1.06,1.88l.06.17.14.05a4.89,4.89,0,0,1,.77.3c.26.13.51.26.75.41a7,7,0,0,1,.71.5,7.21,7.21,0,0,1,.65.59A4.35,4.35,0,0,0,297.15,247.83Zm-3.66-8.41c-.11-.13-.28-.23-.38-.36a8.1,8.1,0,0,1,.81,1.51,3.24,3.24,0,0,0,.17.32,3.47,3.47,0,0,0,.25.29,8.71,8.71,0,0,1,1.21,1.51,5.53,5.53,0,0,1,.67,1.94l0,.22.21.06a6.41,6.41,0,0,1,1.05.47,8.89,8.89,0,0,1,1,.64c.32.25.63.5.93.78a12.22,12.22,0,0,1,.87.89,7,7,0,0,0-2.18-2.29c-.28-.18-.57-.34-.87-.5s-.6-.23-.69-.46a.3.3,0,0,1,0-.13,3.73,3.73,0,0,0-.8-2c-.44-.55-1-1-1.42-1.53-.2-.29-.34-.6-.52-.89A3.65,3.65,0,0,0,293.49,239.42Z" style="fill:#f0997a"></path><g id="freepik--Bottom--inject-5"><path d="M344.76,392.21,335,376.51l-15.92,11.28,22.81,22.61s10.17-1.84,11.35-7.33S347.74,393.74,344.76,392.21Z" style="fill:#ffbda7"></path><path d="M357.14,397.62a9,9,0,0,1,2.55,2.34c.76,1,1,5.83,1.81,8s1.4,2.76,2.72,5.49c1.47,3,3.93,5.7,2.14,14s-5.46,12.46-8.67,14.72a8.84,8.84,0,0,1-4,1.34s-4.57-1.28-4.12-4S357.14,397.62,357.14,397.62Z" style="fill:#263238"></path><path d="M338.51,408.16c.19.81,1.46,2,2,2.62,1.79,2.14,2.79,5.16,3.57,7.81,3.72,12.51-.78,19.43,6.49,23.61,2.1,1.08,6.19.38,11.76-8.2,2.84-4.38,3.93-13,2.35-16.69s-3.51-6.05-4.57-8.92-1.12-8.38-3-10.77a12,12,0,0,0-4.28-3.07c-1.28-.64-4-1.38-5.33-2s-2-1.34-2.77-.37l1.59,1.64c2.5,2.9,1.92,3.41,2,5.06a25.17,25.17,0,0,0,1.29,5.18c-1.77-1.87-2.57-3.57-4.28-3.11s-1.93.4-4.21,2.95S338.34,407.43,338.51,408.16Z" style="fill:#455a64"></path><path d="M362.32,434c2.84-4.38,3.93-13,2.35-16.69a35.92,35.92,0,0,0-1.79-3.57c.07.25.17.51.23.72.12.49.23,1,.32,1.47a11.55,11.55,0,0,1-.13,5.84c-.59,1.66-1.9,5.78-4,6.06-1.21.15-2.34-.94-2.92-2.26-.25-.56-.71-2.07-.71-2.07a18.72,18.72,0,0,0-5.38,2.76c-2.93,2.33-2.77,2.77-2.77,2.77a8.2,8.2,0,0,1,.33,2.72,6.67,6.67,0,0,1-.92,2.82,4.07,4.07,0,0,1-.73.71c.38,2.92,1.35,5.17,4.4,6.92C352.66,443.28,356.75,442.58,362.32,434Z" style="fill:#37474f"></path><path d="M344.07,418.59a42.85,42.85,0,0,1,1.68,10.11c1.46,3.16,2.48,3,2.47,1.27s-2.87-8.52-5.05-14.17C343.51,416.74,343.8,417.68,344.07,418.59Z" style="fill:#37474f"></path><path d="M350.05,397.47a7.21,7.21,0,0,0-1.66-4.55c-.32-.12-.62-.23-.86-.34-1.41-.65-2-1.34-2.77-.37l1.59,1.64c2.5,2.9,1.92,3.41,2,5.06a25.17,25.17,0,0,0,1.29,5.18c1.78,5.42,3.12,7.16,4.19,12.34s.33,8.77,1.09,9,2.21-.49,2.11-4.7-2.55-11.09-4.15-14.31S350,399.73,350.05,397.47Z" style="fill:#37474f"></path><path d="M356,423.83a.49.49,0,0,1-.25.17,12.49,12.49,0,0,0-7.93,5.62A.52.52,0,1,1,347,429a13.62,13.62,0,0,1,8.48-6,.52.52,0,0,1,.65.36A.52.52,0,0,1,356,423.83Z" style="fill:#ebebeb"></path><path d="M355,419.53a.65.65,0,0,1-.25.17,14,14,0,0,0-8.33,6.11.53.53,0,0,1-.75.12.54.54,0,0,1-.13-.75,15.12,15.12,0,0,1,8.88-6.5.53.53,0,0,1,.68.34A.55.55,0,0,1,355,419.53Z" style="fill:#ebebeb"></path><path d="M354.66,414.72a.6.6,0,0,1-.27.19,15.92,15.92,0,0,0-9.31,6.86.6.6,0,0,1-.83.13.59.59,0,0,1-.14-.82,17.16,17.16,0,0,1,9.91-7.3.59.59,0,0,1,.75.38A.57.57,0,0,1,354.66,414.72Z" style="fill:#ebebeb"></path><path d="M353.61,410.68a.56.56,0,0,1-.27.18,15.57,15.57,0,0,0-9.11,6.7.58.58,0,1,1-.94-.67,16.66,16.66,0,0,1,9.69-7.13.59.59,0,0,1,.74.37A.6.6,0,0,1,353.61,410.68Z" style="fill:#ebebeb"></path><path d="M351.76,406.82a.56.56,0,0,1-.27.18,15.57,15.57,0,0,0-9.11,6.7.59.59,0,0,1-.81.14.58.58,0,0,1-.13-.81,16.66,16.66,0,0,1,9.69-7.13.58.58,0,0,1,.63.92Z" style="fill:#ebebeb"></path><polygon points="340.35 393.92 330.26 403.74 324.45 408.13 332.62 420.78 351.56 409.6 340.35 393.92" style="fill:#ffbda7"></polygon><path d="M357.31,332.69s-40.1-3.11-57-1.53c-17.25,1.62-16.25,18-11,25.32,14.42,20,37.6,40.56,37.6,40.56s11.08-4.66,13.32-13.28l-7.87-14.47,21.22,4.81,9.92-8,.39-5.46Z" style="fill:#455a64"></path><path d="M357.31,332.69l69.43,5.43s2.1,16.32-3.06,31.55a33.61,33.61,0,0,1-23.9,21.78,190.91,190.91,0,0,1-20.56,3.49A51.83,51.83,0,0,1,369,402.25c-5.25,2.64-28.22,14.7-28.22,14.7s-7.19-5.09-7.55-16.95l20.42-25.9c4.55-6.65,6.16-8.81,8.87-10.46C357.86,346,357.63,342,357.31,332.69Z" style="fill:#455a64"></path><path d="M356.66,369.79c-2.07,2.9-3.05,4.31-3.05,4.31l-3.4-.8s5.3-6.88,8.79-10.56c3.81-4,9.26-4.72,14.55-4.3,6.72.52,26.19,2.12,26.19,2.12s-18.53-.06-28.13.41S358.73,366.89,356.66,369.79Z" style="fill:#37474f"></path><path d="M356,345.87c1.13,6.65,6.22,13.67,8.89,15.34l-3.74,2.23S355.36,354.91,356,345.87Z" style="fill:#37474f"></path><path d="M327.83,356.79a146.73,146.73,0,0,1,10,13.72l-5.42-1.22c-7.18-13.64-8.76-17.66-18.83-23.47C313.56,345.82,320.6,347.8,327.83,356.79Z" style="fill:#37474f"></path><path d="M383.57,386.56s-3.14,5.54-14.38,11.5c-6.31,3.35-25.91,13.06-31.95,15.06a16.36,16.36,0,0,0,3.5,3.83s23-12.06,28.22-14.7a33.58,33.58,0,0,0,3.33-1.94c.47-.3.94-.62,1.38-.93,1.16-.81,2.21-1.62,3.08-2.32s1.55-1.29,2-1.67l.44-.4.06-.05C384,390,383.57,386.56,383.57,386.56Z" style="fill:#37474f"></path><path d="M300.15,417.21c-4.49,2.24-7.2,4.33-9.1,7.33s-2.31,5.89,0,9.12,6.43,6.88,10.86,6.23,7.07-2,11-4.59Z" style="fill:#263238"></path><path d="M337.65,417.9c.19,1.39-5.44,4.68-11.29,8.12-6.27,3.69-7.7,5.87-12.81,9-5.84,3.53-8.14,3.91-13,3s-11.28-7.17-7.75-13.75c2.87-5.37,7.05-7.14,13.42-9.42a124.44,124.44,0,0,0,14.82-6.26c4.54-2.24,8.14-5.86,9.21-4.81-.64.39-5.3,3.86-4.3,4.6.26.41,1,.21,2.12-.39a2.05,2.05,0,0,1,1.69-.23,3.26,3.26,0,0,1,1.34,1.36,35.54,35.54,0,0,1,1.8,3.6c.44.83.25.35.66,1.19s1.32,2.34,1.3,3.24c0,.55-.38.75-.77,1.05s-1,.67-1.32,1c-.14.14-.39.56-.28.76s1,.09,1.35-.09.93-.37,1.34-.57S336.62,418.5,337.65,417.9Z" style="fill:#455a64"></path><path d="M315.56,433.79c-.84.51-6.15,3.57-8,2.18s2.19-4.56,2.19-4.56.31-4.24-5.27-9.94c-.81.75-4.46,1-4.59-1.11s5.73-5.31,5.82-5.35c-6.1,2.21-10.08,4-12.87,9.22-3.53,6.58,2.9,12.85,7.75,13.75s7.15.53,13-3C314.14,434.62,315.05,434.15,315.56,433.79Z" style="fill:#37474f"></path><path d="M309.09,431c-2.25,1-.48,2.94,2.84,2,5-1.46,8.94-4.7,14.43-7,5.85-3.44,11.83-6.69,11.29-8.2-1,.51-3.3,1.68-3.3,1.68-.44.24-1.58.78-1.58.78-4.46,2.4-9.29,6.06-14.17,7.85C314.29,429.71,311.33,430.07,309.09,431Z" style="fill:#37474f"></path><path d="M304.86,422.23c2-1.41,2.28-2.48,6.26-4.75s10.63-7,14.74-9.85a53.81,53.81,0,0,0,4.4-3.89c-.79-.75-3.36.23-5.86,2.13s-4,3.1-6.51,4.69c-4.83,3.5-10.45,6.07-13.19,8.19S302.85,423.64,304.86,422.23Z" style="fill:#37474f"></path><path d="M304.5,421.7a.7.7,0,0,0,.13.17,18.53,18.53,0,0,1,4.85,9.89.61.61,0,0,0,.63.52.51.51,0,0,0,.42-.63A19.48,19.48,0,0,0,305.26,421a.49.49,0,0,0-.74.05A.61.61,0,0,0,304.5,421.7Z" style="fill:#f0f0f0"></path><path d="M308.33,418.35a1.83,1.83,0,0,0,.13.16,25.36,25.36,0,0,1,6,11.65.61.61,0,0,0,.64.5.52.52,0,0,0,.4-.65,26.12,26.12,0,0,0-6.33-12.33.49.49,0,0,0-.75,0A.63.63,0,0,0,308.33,418.35Z" style="fill:#f0f0f0"></path><path d="M318.4,429.38a.58.58,0,0,0,.52.32.5.5,0,0,0,.46-.59c-.89-7.39-6.27-13.92-6.51-14.14a.49.49,0,0,0-.75,0,.65.65,0,0,0,.12.82c.05.05,5.26,6.43,6.08,13.31A.75.75,0,0,0,318.4,429.38Z" style="fill:#f0f0f0"></path><path d="M322,426.62a.58.58,0,0,0,.51.33.5.5,0,0,0,.47-.58A21.88,21.88,0,0,0,316.23,413a.49.49,0,0,0-.74.09.63.63,0,0,0,.17.81,21.13,21.13,0,0,1,6.24,12.47A.49.49,0,0,0,322,426.62Z" style="fill:#f0f0f0"></path><path d="M326.71,424.12a.58.58,0,0,0,.5.32.48.48,0,0,0,.48-.57c-.7-7.7-6.64-13.19-6.9-13.41a.49.49,0,0,0-.74.07.63.63,0,0,0,.14.82c.06,0,5.79,5.36,6.44,12.51A.79.79,0,0,0,326.71,424.12Z" style="fill:#ebebeb"></path></g><g id="freepik--Top--inject-5"><g id="freepik--Chest--inject-5"><path d="M356.5,281.67c-1.33-18.42,3.9-25,13.06-27.18l19.5-1.53s17.89,3.23,23.38,4.42c3.54.76,10.17,9.51,12.29,20.7,1.72,9.1,3.41,16.72,3.88,29.49a322.2,322.2,0,0,1-1.19,42.06c-28.73,12.1-69.34-3.33-73.28-17.17.71-3.93,6.08-9.95,5.88-17.65C357.59,298.93,356.92,287.46,356.5,281.67Z" style="fill:#263238"></path><g id="freepik--Head--inject-5"><path d="M385.46,225.85l8.07,2.12a28.1,28.1,0,0,1,3.33.88L397,235l.41,8.77a5.67,5.67,0,0,0,3.08-2.85,46.47,46.47,0,0,0,4.57-13c2.28-11.61,1.18-15.54-.12-17.64a8.61,8.61,0,0,0-4.83-4c-1.43-6.69-7.31-9.52-10-10.36a26.92,26.92,0,0,0-10.84-.68,23.77,23.77,0,0,0-4.88.93c-2.18.72-4.18,1.94-6.37,2.59s-4.81.65-6.54-.86a3.07,3.07,0,0,0-.64-.5,1.53,1.53,0,0,0-1.74.48,3.55,3.55,0,0,0-.69,1.79,11.33,11.33,0,0,0,1.27,7.13,1.56,1.56,0,0,0-1.56.47,3.21,3.21,0,0,0-.71,1.54c-.81,3.68,1.41,7.51,4.53,9.63a23.16,23.16,0,0,0,4.27,2.17,72.35,72.35,0,0,0,9.76,3.21C379.12,224.64,382.3,225,385.46,225.85Z" style="fill:#37474f"></path><path d="M405.17,237c-4.38,2.53-6.71-.9-6.71-.9l.72,19.71c-7.86,12.28-31.44,9.28-22.54-.15l-.37-5.54a30.8,30.8,0,0,1-4-.14,10.46,10.46,0,0,1-9.08-7.19,28.89,28.89,0,0,1-.94-3.3,62.28,62.28,0,0,1-1-18.63,31.47,31.47,0,0,1,2-9.85,6.12,6.12,0,0,1,1.52-2.39c2.69-2.36,4.42,1.69,6.83,2.08a5.16,5.16,0,0,0,2.74-.63,38.13,38.13,0,0,1,5.21-1.79c1.62-.43,3.57-.68,4.79.48a6.46,6.46,0,0,1,1.23,2.13c1.28,2.86,3.43,5.83,6.78,6.15.07,2.32.11,5.12,1,7.29.39,1,1.46,3.22,2.72,3.39,2.79.38,2.94-2,4.08-3.38a5.07,5.07,0,0,1,8,1.24A8.26,8.26,0,0,1,405.17,237Z" style="fill:#ffbda7"></path><path d="M393.05,243.64c-.62,4.52-6.43,7.88-16.62,8.86l-.16-2.42a46.56,46.56,0,0,0,7.44-1.22C388.43,247.73,393.05,243.64,393.05,243.64Z" style="fill:#f0997a"></path><path d="M385.74,219l-4.39-2a2.54,2.54,0,0,0,1.22,3.3A2.36,2.36,0,0,0,385.74,219Z" style="fill:#37474f"></path><path d="M368,213.31l-3.84,3a2.35,2.35,0,0,0,3.37.48A2.56,2.56,0,0,0,368,213.31Z" style="fill:#37474f"></path><path d="M383.77,224a2,2,0,1,1-2.13-1.8A2,2,0,0,1,383.77,224Z" style="fill:#263238"></path><path d="M368.36,223.89a2,2,0,1,1-2.13-1.8A1.79,1.79,0,0,1,368.36,223.89Z" style="fill:#263238"></path><path d="M375.34,220l.29,12.9-7.25-1.34C369.62,226.4,372.89,222.67,375.34,220Z" style="fill:#f0997a"></path><path d="M378,238.16s0,.1,0,.12l0,0a.15.15,0,0,0,.13,0l.22-.1a.92.92,0,0,0,.27-.16.23.23,0,0,0,.07-.19.11.11,0,0,0,0-.08s0,0-.07,0a.73.73,0,0,0-.21.06h0l-.19.08a.53.53,0,0,0-.24.14A.47.47,0,0,0,378,238.16Zm-2.17,0c0,.11,0,.18.13.17a.46.46,0,0,0,.24-.12l.57-.38a10.52,10.52,0,0,1,1-.62,7.59,7.59,0,0,1,1.11-.45c.48-.15,1-.16,1.47-.32.19-.06.43-.44.11-.52a3.25,3.25,0,0,0-1.35.11,7,7,0,0,0-1.2.39,6.34,6.34,0,0,0-1.14.63,3.2,3.2,0,0,0-.5.41A1.37,1.37,0,0,0,375.86,238.16Z" style="fill:#b16668"></path></g></g></g><path d="M444.1,284.44s-2.86-3.4-10.2-11.94c-7-8.2-9.13-11.31-14.75-12.89-2.54-.71-5.32-1.25-6.2-1.45-4.45,5.65-1,23,5,32.78,0,0,16,15.4,26.3,23,9.12,6.74,14.78,2.37,15.92-.46Z" style="fill:#ffbda7"></path><path d="M459.14,247.15c-.87-2.09,1.73-3.9,1.66-5.91a1.59,1.59,0,0,0-2.44-1.36c-1.23.6-1.85,1.92-2.71,2.91a10.93,10.93,0,0,1-3.71,2.62c-2.9,1.36-6,3.5-6.34,7a11,11,0,0,1,2.12-.83C451.53,250.12,455.33,248.61,459.14,247.15Z" style="fill:#f0997a"></path><path d="M466.2,237.62c-.13.39-.25.79-.36,1.18s-.32,1-.45,1.51q-.11.38-.18.75a3.51,3.51,0,0,1-.1.77c-.94.72-2.45,1.31-3.51,2.94s-1.06,2.18-4.24,2.85c-2.15.46-5.33.49-7.73,1.49s-4.49,2.36-4.48,5.74.83,5.11.67,8.55c-.13,2.59-.35,8.48-1.72,21-1.54,14.11-.69,20.13-.69,20.13,1.49,3.37,7,13,10.14,12.95,4.32,0,9.15-3.61,10.29-15.06.43-4.31,0-9-1-14.95-.82-4.85-1.05-8.05-1.95-15.06-.81-6.35-.85-10-.08-12.37a16.6,16.6,0,0,1,4.49-6.69c2.44-2,2.79-1.67,4-5.22.71-2.38,2.45-4.83,3.3-6.54a20.7,20.7,0,0,0,1.63-5.4,24.63,24.63,0,0,1,.73-3.81,1.39,1.39,0,0,0,.13-.93.8.8,0,0,0-.49-.46,1.72,1.72,0,0,0-.68-.08c.12,0,.5-.89.56-1a8.68,8.68,0,0,1,.45-.92.49.49,0,0,0-.41-.84,3.13,3.13,0,0,0-1.81.51,9.11,9.11,0,0,0-1.75,1.86,1,1,0,0,1-.28.25,2,2,0,0,1-.48.13,2,2,0,0,0-1.2.94,23.79,23.79,0,0,0-1.19,2.56c-.24.51-.57,1-.83,1.49A13.08,13.08,0,0,0,466.2,237.62Z" style="fill:#ffbda7"></path><path d="M462,245.69c-.37.21-.74.39-1.12.59l-.31.16A16.49,16.49,0,0,0,462,244.5c.79-1.17,2-1.65,3.12-2.46a.82.82,0,0,0,.22-.46,19,19,0,0,1,2.33-6.83c.75-1.33.88-3.23,2.48-3.83-1.65.42-1.9,2.51-2.71,3.74a18.86,18.86,0,0,0-2.56,6.72q0,.13,0,.24a11.69,11.69,0,0,0-3.35,2.7,12.09,12.09,0,0,1-1.34,1.86c-2.58,1.74-6.07,1.25-9,2.15-3.09.79-6.38,2.94-6,6.52.21-4.21,3.5-5.52,7.08-6.2a5.9,5.9,0,0,0-3.45,2.71,6,6,0,0,0-.64,2.41,6.29,6.29,0,0,0,.35,2.44,21,21,0,0,1,.08-2.53,7.83,7.83,0,0,1,.76-2.11,7.58,7.58,0,0,1,3.2-3c1.94-.35,3.94-.53,5.57-.9a6.52,6.52,0,0,0,2-.88,8.3,8.3,0,0,0,2.08-.78,5.57,5.57,0,0,0,1.93-1.71A18.75,18.75,0,0,1,462,245.69Zm5.18-3c.17-.25.32-.5.51-.73a7.42,7.42,0,0,1,1.21-1.21,5,5,0,0,1,.68-.48l.12-.07,0-.18a6.88,6.88,0,0,1,.59-2.08,9.92,9.92,0,0,1,.53-1,7,7,0,0,1,.66-.84l.09-.1V236a11.23,11.23,0,0,1,.35-2.06,6.9,6.9,0,0,1,1-2,1.16,1.16,0,0,0-.29.25,3.48,3.48,0,0,0-.36.55,7.64,7.64,0,0,0-1,2.4,2.3,2.3,0,0,1-.15.69,2.14,2.14,0,0,1-.43.56,5.49,5.49,0,0,0-1.28,2.68,2.58,2.58,0,0,1-.15.68,2,2,0,0,1-.61.7A4.49,4.49,0,0,0,467.19,242.71Zm3-10.77c-.11.32-.18.66-.3,1-.26.65-.74,1.19-1,1.82a3.77,3.77,0,0,0-.31,2.15.29.29,0,0,1,0,.13c0,.25-.4.46-.57.61s-.5.45-.73.68a7.08,7.08,0,0,0-1.59,2.73c.21-.36.4-.73.64-1.06a11.6,11.6,0,0,1,.72-1,9.66,9.66,0,0,1,.83-.86,6.4,6.4,0,0,1,.92-.7l.18-.1,0-.22a5.72,5.72,0,0,1,.21-2,8.21,8.21,0,0,1,.84-1.74,3.59,3.59,0,0,0,.17-.34,2.25,2.25,0,0,0,.09-.35,8.29,8.29,0,0,1,.45-1.66c-.08.15-.21.28-.29.44A2.87,2.87,0,0,0,470.17,231.94Z" style="fill:#f0997a"></path><path d="M444.1,284.44a58,58,0,0,0-.56,15.83,29.5,29.5,0,0,1-1.79-18.6Z" style="fill:#f0997a"></path><path d="M431,303.31c-7.51-6.67-13.83-12.71-13.83-12.71-1.81-2.79-11.14-22.54-4.74-33.22,4.65,1,9,2,11.44,3.77s4.27,3.87,8.28,8.65c2.7,3.21,7.28,8.69,10,11.94C439.83,298.31,431,303.31,431,303.31Z" style="fill:#455a64"></path></g></g><g id="freepik--character-1--inject-5"><g id="freepik--character--inject-5"><path d="M113.59,256.4c9.11,0,12.78,2.76,20,9.65C139.76,272,157,288,157,288s5,26-.42,26-31.21-21.47-31.21-21.47Z" style="fill:#ffa8a7"></path><path d="M155.91,287c-2.5,3.66-3.83,18.82-3.83,18.82a19.52,19.52,0,0,1-2.29-11,17.61,17.61,0,0,1,4.24-9.55Z" style="fill:#f28f8f"></path><path d="M191.9,254.07c.21-2.26,3.35-2.63,4.22-4.45a1.59,1.59,0,0,0-1.52-2.34c-1.36,0-2.53.84-3.75,1.31a11.1,11.1,0,0,1-4.5.59c-3.2-.17-7,.27-8.89,3.23a11.53,11.53,0,0,1,2.26.26C183.78,253.14,187.84,253.58,191.9,254.07Z" style="fill:#f28f8f"></path><path d="M202.6,249c-.31.28-.6.58-.88.87s-.75.74-1.11,1.13c-.17.18-.34.38-.5.57s-.36.62-.45.63c-1.17.2-2.78,0-4.48,1s-2,1.43-5.08.54c-2.11-.6-4.94-2.06-7.53-2.3s-5.06,0-6.64,3-.88,5.47-2.63,8.43C172,265,170.92,267,163.61,277.3c-5.37,7.57-11.89,12.38-12.44,20.19-.26,3.67-.07,14.16,2.75,15.62,3.83,2,11.24,1.6,16.29-7.94a83.18,83.18,0,0,0,6.07-13.71c1.54-4.67,2.83-7.6,5.31-14.22,2.25-6,3.9-9.2,5.71-11a16.58,16.58,0,0,1,7.1-3.83c3.1-.65,3.24-.17,5.95-2.75,1.75-1.77,4.43-3.12,6-4.24a20.13,20.13,0,0,0,4-4,22.78,22.78,0,0,1,2.43-3,1.44,1.44,0,0,0,.55-.77.82.82,0,0,0-.22-.63,1.61,1.61,0,0,0-.57-.39c.11,0,.86-.56,1-.64a7.4,7.4,0,0,1,.83-.61c.21-.13.42-.37.34-.62a.64.64,0,0,0-.32-.31,3.1,3.1,0,0,0-1.84-.4,9.77,9.77,0,0,0-2.42.83.91.91,0,0,1-.36.09,1.6,1.6,0,0,1-.48-.11,2,2,0,0,0-1.51.27,24.54,24.54,0,0,0-2.24,1.71c-.46.34-1,.6-1.43.92A12.36,12.36,0,0,0,202.6,249Z" style="fill:#ffa8a7"></path><path d="M195.12,254.12c-.42,0-.84,0-1.27,0h-.35a18.15,18.15,0,0,0,2.16-1.06c1.25-.67,2.53-.53,3.91-.72a.89.89,0,0,0,.41-.3,18.92,18.92,0,0,1,5.25-4.95c1.28-.82,2.28-2.44,4-2.23-1.66-.39-2.85,1.33-4.14,2a18.9,18.9,0,0,0-5.41,4.75c0,.07-.09.14-.14.2a11.52,11.52,0,0,0-4.22.82,12.63,12.63,0,0,1-2.06,1c-3.09.33-6-1.74-9-2.31-3.11-.75-7-.38-8.36,3,2.16-3.62,5.68-3.25,9.16-2.17a5.92,5.92,0,0,0-4.32.78,6.06,6.06,0,0,0-1.69,1.84,6.41,6.41,0,0,0-.84,2.32,21.86,21.86,0,0,1,1.26-2.2,8,8,0,0,1,1.66-1.52,7.63,7.63,0,0,1,4.22-1.13c1.88.59,3.73,1.37,5.35,1.8a6.59,6.59,0,0,0,2.2.17,8.21,8.21,0,0,0,2.2.29,5.78,5.78,0,0,0,2.52-.61A19.92,19.92,0,0,1,195.12,254.12Zm6-.21c.27-.14.52-.29.79-.41a7.87,7.87,0,0,1,.81-.3,7.75,7.75,0,0,1,.83-.21,5.92,5.92,0,0,1,.82-.1h.15l.1-.14a6.74,6.74,0,0,1,1.5-1.56,7.87,7.87,0,0,1,.91-.59,7.49,7.49,0,0,1,1-.44l.13-.05.06-.08a10.14,10.14,0,0,1,1.27-1.66,6.91,6.91,0,0,1,1.83-1.25,1.11,1.11,0,0,0-.36.08,3.68,3.68,0,0,0-.58.32,7.6,7.6,0,0,0-2,1.65,3.05,3.05,0,0,1-.46.55,2.47,2.47,0,0,1-.64.29,5.31,5.31,0,0,0-2.38,1.77,2.62,2.62,0,0,1-.46.53,2.22,2.22,0,0,1-.86.34A4.35,4.35,0,0,0,201.09,253.91Zm7.67-8.13c-.25.23-.47.5-.73.72-.53.46-1.2.71-1.76,1.13a3.72,3.72,0,0,0-1.28,1.75.33.33,0,0,1-.05.12c-.15.21-.57.23-.79.28s-.65.16-1,.26a7.11,7.11,0,0,0-2.68,1.66c.36-.21.69-.45,1.06-.63a10,10,0,0,1,1.1-.52,11.53,11.53,0,0,1,1.13-.38,6.78,6.78,0,0,1,1.13-.18h.22l.08-.2a5.57,5.57,0,0,1,1.14-1.71,8.31,8.31,0,0,1,1.55-1.15,1.78,1.78,0,0,0,.31-.23,3.07,3.07,0,0,0,.25-.26,8.24,8.24,0,0,1,1.17-1.26c-.13.1-.32.15-.46.25A3.62,3.62,0,0,0,208.76,245.78Z" style="fill:#f28f8f"></path><g id="freepik--top--inject-5"><path d="M67,348.44c-2.23-15-5-35.3-2.52-55.74.79-6.55,6.53-26.6,8.25-31.49l13-3.38s18-1.37,20.26-1.43c4-.1,7.6,0,7.6,0,.86.91,16.23,11.77,20.09,22.87,2.2,6.31,1.34,16.09-6,21.61,0,0-1.11,11-1.11,11.13s6.78,10.56,7.91,13c-1.71,10.9-14.75,20.54-33.25,24.39C79,354.05,68.38,349.28,67,348.44Z" style="fill:#fafafa"></path><path d="M109.75,257.35c1.6,0,2.88,0,3.47,0l1,.77c3.8,3,15.37,12.2,18.59,21.43,2.23,6.4,1,15.49-5.7,20.49l-.35.26,0,.44c-1.11,11.07-1.11,11.15-1.11,11.18l0,.32.17.27c.07.1,6.31,9.84,7.72,12.63-1.85,10.43-14.52,19.54-32.42,23.27a86.65,86.65,0,0,1-17.54,2c-8.53,0-13.76-1.72-15.54-2.61-2.43-16.43-4.78-35.54-2.44-55,.76-6.31,6.22-25.42,8-30.79l12.4-3.22c1.37-.1,18-1.36,20.11-1.41,1.17,0,2.42,0,3.72,0m0-1c-1.12,0-2.41,0-3.74.05-2.29,0-20.26,1.42-20.26,1.42l-13,3.38C71,266.1,65.29,286.15,64.5,292.7c-2.45,20.44.29,40.7,2.52,55.74.93.57,6.16,3,16.45,3a87.27,87.27,0,0,0,17.74-2c18.5-3.85,31.54-13.49,33.25-24.39-1.13-2.46-7.91-13-7.91-13s1.11-11.13,1.11-11.13c7.38-5.52,8.24-15.3,6-21.61-3.86-11.1-19.23-22-20.09-22.86,0,0-1.6-.05-3.86-.05Z" style="fill:#ebebeb"></path><path d="M114.59,302.4s-5.49,6.63-16.25,5.33a19.9,19.9,0,0,1-15.27-10.1s1.51,11.58,14.77,13.19C110.07,312.31,114.59,302.4,114.59,302.4Z" style="fill:#e0e0e0"></path><path d="M78.67,210.48c-.07.31-1.83,1.22-2.16,1.51a9.84,9.84,0,0,0-1.66,1.87,13.53,13.53,0,0,0-1.92,5c-.6,3-.53,6.07-.83,9.11a60.45,60.45,0,0,1-1.77,8.68,29.76,29.76,0,0,0-1.24,7.69,10.06,10.06,0,0,0,2.73,7.11,17,17,0,0,1,.2-7.79,15.48,15.48,0,0,0,.87,4.78,11.17,11.17,0,0,0,5.18,5.46,28.57,28.57,0,0,0,7.23,2.51,52.54,52.54,0,0,0,12.41,1.5c2.58,0,5.16-.16,7.72-.43,3.32-.36,6.7-1,9.53-2.72s5-4.92,4.74-8.24a9.76,9.76,0,0,1,1.2,5.35,10.61,10.61,0,0,0,2.7-7.36,18.49,18.49,0,0,0-2-7.71,35.1,35.1,0,0,1-2.12-4.63,6.54,6.54,0,0,1-.09-4.53c.47-.94,1.24-1.79,1.73-2.75a17.2,17.2,0,0,0,2.14-8.49c-.29-6.1-3.7-14.14-14.76-16.88C99.3,197.25,81.45,198.51,78.67,210.48Z" style="fill:#263238"></path><g id="freepik--head--inject-5"><g id="freepik--head--inject-5"><g id="freepik--head--inject-5"><path d="M82.94,241.92a7,7,0,0,1-6.15-2.61c-3.14-3.7-3.29-7.33-1.65-9.67,1.34-1.93,4.51-3.06,6.63-1.63,2.27,1.53,2.29,2.7,3.1,4.36s3.13.49,2.65-6.05c4.61-1.9,4.21-9.37,6.78-12.3,4-4.59,10.28-3.09,12.28-1.88a8.33,8.33,0,0,1,8.61-.17c3,1.73,4.86,5.18,5.43,16.78.59,11.84-1.82,19.6-4.7,22-2,1.64-5.57,2.65-9.78,2.23L106,257.4s11.65,13-3.85,11.22a24.51,24.51,0,0,1-17.2-10.57l.67-17.87S85.28,241.59,82.94,241.92Z" style="fill:#ffa8a7"></path><path d="M114.08,219.39l3.72,2.9a2.29,2.29,0,0,1-3.27.44A2.43,2.43,0,0,1,114.08,219.39Z" style="fill:#263238"></path><path d="M103.8,228.54a2,2,0,1,1-2-2A2,2,0,0,1,103.8,228.54Z" style="fill:#263238"></path><path d="M117.34,227.63a2,2,0,1,1-2-2A2,2,0,0,1,117.34,227.63Z" style="fill:#263238"></path><path d="M97,223l4.5-2.29a2.36,2.36,0,0,1-1,3.33A2.69,2.69,0,0,1,97,223Z" style="fill:#263238"></path><polygon points="115.36 234.13 109.18 236.95 107.87 223.92 115.36 234.13" style="fill:#f28f8f"></polygon><path d="M105.77,241.7c0-.08-.17-.11-.25-.15l-.2-.09,0,0a.43.43,0,0,0-.22-.06.09.09,0,0,0-.07,0,.12.12,0,0,0,0,.08.24.24,0,0,0,.08.2,1.31,1.31,0,0,0,.28.17l.24.11a.15.15,0,0,0,.13,0l0,0a.22.22,0,0,0,0-.13A.31.31,0,0,0,105.77,241.7Zm1.88-.59a3.69,3.69,0,0,0-.53-.43,7.77,7.77,0,0,0-1.2-.66,6.73,6.73,0,0,0-1.27-.41,3.26,3.26,0,0,0-1.42-.11c-.33.08-.09.48.12.54.5.17,1,.18,1.55.34a7.33,7.33,0,0,1,1.17.47,11.68,11.68,0,0,1,1.06.66c.2.14.41.26.6.4a.64.64,0,0,0,.26.13c.12,0,.15-.07.14-.18A1.52,1.52,0,0,0,107.65,241.11Z" style="fill:#b16668"></path></g></g><path d="M106.14,253c-6.08-.49-14.14-3-16.16-6.91,1,4.21,5.23,6.54,8.61,7.63a35.76,35.76,0,0,0,7.4,1.59Z" style="fill:#f28f8f"></path></g></g><g id="freepik--bottom--inject-5"><path d="M203.71,412.38l-12.33-19.93,18.85-14.83c5,12.64,11.5,31.13,15.25,36.17,0,0-7.46,7.8-13.36,7.24S204.3,415.86,203.71,412.38Z" style="fill:#ffa8a7"></path><path d="M205.4,423.22a9.33,9.33,0,0,0,1.54,3.3c.7,1.07,5.54,2.84,7.48,4.39s2.33,2.28,4.65,4.49c2.58,2.44,4.48,5.76,13.37,6.6s14.26-1.51,17.56-4a9.39,9.39,0,0,0,2.62-3.57s.16-5-2.67-5.41S205.4,423.22,205.4,423.22Z" style="fill:#263238"></path><path d="M221.94,407.85c.76.46,1.53,2.11,2,2.85,1.58,2.47,4.3,4.44,6.71,6.07,11.39,7.74,19.78,5.42,21.66,14.07.42,2.45-1.59,6.34-12,9.2-5.32,1.45-14.31-.19-17.53-3s-5-5.46-7.51-7.44-8.07-3.8-9.88-6.41a12.47,12.47,0,0,1-1.72-5.29c-.23-1.49-.71-6.55-.71-6.55,2.12,3.45,4.9,2.8,6.53,3.42a27.09,27.09,0,0,1,4.79,2.95c-1.31-2.37-2.76-3.72-1.75-5.29s1-1.81,4.3-3.29S221.26,407.44,221.94,407.85Z" style="fill:#BA68C8"></path><path d="M221.94,407.85c.76.46,1.53,2.11,2,2.85,1.58,2.47,4.3,4.44,6.71,6.07,11.39,7.74,19.78,5.42,21.66,14.07.42,2.45-1.59,6.34-12,9.2-5.32,1.45-14.31-.19-17.53-3s-5-5.46-7.51-7.44-8.07-3.8-9.88-6.41a12.47,12.47,0,0,1-1.72-5.29c-.23-1.49-.71-6.55-.71-6.55,2.12,3.45,4.9,2.8,6.53,3.42a27.09,27.09,0,0,1,4.79,2.95c-1.31-2.37-2.76-3.72-1.75-5.29s1-1.81,4.3-3.29S221.26,407.44,221.94,407.85Z" style="opacity:0.4"></path><path d="M240.32,440c-5.32,1.45-14.31-.19-17.53-3a35.54,35.54,0,0,1-3-2.94c.23.16.45.34.65.46.46.28.91.55,1.38.79a12.19,12.19,0,0,0,5.91,1.74c1.85-.06,6.42-.07,7.38-2.13.54-1.16-.2-2.65-1.34-3.66-.48-.42-1.86-1.37-1.86-1.37a20,20,0,0,1,4.49-4.52c3.28-2.21,3.68-1.91,3.68-1.91a8.6,8.6,0,0,0,2.63,1.21,7.16,7.16,0,0,0,3.13,0,4,4,0,0,0,.94-.51c2.82,1.32,4.77,3,5.55,6.64C252.73,433.29,250.72,437.18,240.32,440Z" style="opacity:0.30000000000000004"></path><path d="M230.65,416.77a45.32,45.32,0,0,0,9.63,4.92c2.71,2.48,2.2,3.44.49,2.89S233.12,419,228.13,415C229,415.61,229.82,416.21,230.65,416.77Z" style="fill:#37474f"></path><path d="M207.52,416c-1.63-.47-2.94-.62-4.21-1.68-.81-.63-.91-2.8-.68-3.72l1.16,1.85c2.27,1.61,4.08,1.69,5.71,2.31a26.51,26.51,0,0,1,4.79,2.95c4.88,3.52,6.21,5.43,11.07,8.15s8.71,3.14,8.7,4-1.19,2.06-5.4.62-10.33-6.12-13.06-8.75S209.81,416.69,207.52,416Z" style="fill:#37474f"></path><path d="M232.1,430.47a.6.6,0,0,0,.25-.2c2.23-3.28,3.93-4.82,8.18-6.18a.55.55,0,1,0-.33-1c-4.5,1.44-6.39,3.12-8.76,6.61a.55.55,0,0,0,.66.82Z" style="fill:#ebebeb"></path><path d="M228.11,428.05a.67.67,0,0,0,.25-.2,14.79,14.79,0,0,1,8.8-6.42.55.55,0,0,0,.36-.72.56.56,0,0,0-.71-.36,15.92,15.92,0,0,0-9.37,6.84.57.57,0,0,0,.67.86Z" style="fill:#ebebeb"></path><path d="M223.38,426.19a.71.71,0,0,0,.27-.22c2.65-3.7,4.92-5.57,9.87-7.17a.62.62,0,0,0-.38-1.19,18.09,18.09,0,0,0-10.5,7.63.64.64,0,0,0,.14.88A.68.68,0,0,0,223.38,426.19Z" style="fill:#ebebeb"></path><path d="M219.65,423.84a.56.56,0,0,0,.27-.21c2.6-3.63,4.79-5.44,9.65-7a.61.61,0,0,0,.39-.77.6.6,0,0,0-.77-.39,17.58,17.58,0,0,0-10.26,7.46.61.61,0,0,0,.14.86A.63.63,0,0,0,219.65,423.84Z" style="fill:#ebebeb"></path><path d="M216.36,420.74a.56.56,0,0,0,.27-.21,16.38,16.38,0,0,1,9.65-7,.62.62,0,0,0,.39-.77.61.61,0,0,0-.77-.4,17.61,17.61,0,0,0-10.26,7.47.6.6,0,0,0,.14.85A.58.58,0,0,0,216.36,420.74Z" style="fill:#ebebeb"></path><path d="M201.74,349.78c-4.12-12-7.14-15.3-23.46-18.73-21.88-4.61-67.59-10.44-67.59-10.44l-2,50.26c1.84.71,2.32.21,4.31.82,7.59,2.32,32.31-1.67,62.25-3.42,3.17,7.78,6.9,14,15.2,24.79,5.89,7.64,8.26,10.93,8.26,10.93s11.16.36,18.67-8.49C217.42,395.5,212,379.51,201.74,349.78Z" style="fill:#455a64"></path><path d="M193.67,398.18c4.08.44,17.48-1.22,21.79-9.09l2.73,8.1s-.61,3.5-9.24,6.76c-7,2.63-10.56,1.44-10.56,1.44Z" style="fill:#37474f"></path><path d="M163.83,328.36c-22.07-3.87-53.14-7.75-53.14-7.75l-2,50.26c1.84.71,2.32.21,4.31.82,6.69,2.05,26.7-.81,51.86-2.72Z" style="fill:#37474f"></path><path d="M135.3,350.43l-1.15-1-25,21.6c1.49.48,2.07.12,3.89.68a29.11,29.11,0,0,0,8.2.7C128.45,366.73,132.79,356.11,135.3,350.43Z" style="fill:#263238"></path><path d="M183.48,410.37c0-2.37-5.54-6.28-9.67-9.74-6.62-5.54-10.85-9.06-12.36-14.11s-2.22-7.84-2.2-11.22,0-7.69.26-18.83c0-1.42-22.2-.15-21.8,1.6,1.35,5.86,3.7,19.42,3.76,20.69a13,13,0,0,1-.77,4.5,15.72,15.72,0,0,0-.33,8.44c.83,3.09,3,3.61,5.37,6.08s2.86,2.58,4.4,6.12c1.66,3.78,4.17,9.78,13.7,13.09a25,25,0,0,0,17.2-.8C183.68,415,183.48,411.25,183.48,410.37Z" style="fill:#ffa8a7"></path><path d="M140,391.7a9.48,9.48,0,0,0,.56,3.74c.38,1.28,4.68,4.47,6.16,6.58s1.65,3,3.32,5.84c1.84,3.19,2.76,7.06,11.36,10.51s14.66,2.7,18.68,1.18a9.85,9.85,0,0,0,3.67-2.79s1.63-4.94-1.07-6.17S140,391.7,140,391.7Z" style="fill:#263238"></path><path d="M161,381.25c.62.68.91,2.56,1.16,3.43.84,2.93,3,5.69,4.89,8,9.08,11.06,18.12,11.22,17.45,20.39-.31,2.57-3.46,5.85-14.67,5.63-5.72-.11-14.19-4.4-16.59-8.11s-3.34-6.9-5.29-9.62-6.92-6.17-7.95-9.3a13.06,13.06,0,0,1-.17-5.77c.22-1.56,1.23-6.74,1.23-6.74,1.09,4.05,4.06,4.23,5.5,5.33a28.46,28.46,0,0,1,3.91,4.34c-.61-2.74-1.66-4.52-.19-5.78s1.53-1.51,5.25-2S160.43,380.65,161,381.25Z" style="fill:#BA68C8"></path><path d="M161,381.25c.62.68.91,2.56,1.16,3.43.84,2.93,3,5.69,4.89,8,9.08,11.06,18.12,11.22,17.45,20.39-.31,2.57-3.46,5.85-14.67,5.63-5.72-.11-14.19-4.4-16.59-8.11s-3.34-6.9-5.29-9.62-6.92-6.17-7.95-9.3a13.06,13.06,0,0,1-.17-5.77c.22-1.56,1.23-6.74,1.23-6.74,1.09,4.05,4.06,4.23,5.5,5.33a28.46,28.46,0,0,1,3.91,4.34c-.61-2.74-1.66-4.52-.19-5.78s1.53-1.51,5.25-2S160.43,380.65,161,381.25Z" style="opacity:0.4"></path><path d="M169.82,418.73c-5.72-.11-14.19-4.4-16.59-8.11a37.12,37.12,0,0,1-2.14-3.82c.18.22.35.47.52.65.37.41.74.81,1.14,1.2a12.61,12.61,0,0,0,5.38,3.47c1.85.48,6.41,1.82,8,.05.89-1,.58-2.7-.25-4-.36-.57-1.45-1.92-1.45-1.92a20.75,20.75,0,0,1,5.81-3.18c3.91-1.23,4.22-.82,4.22-.82a8.94,8.94,0,0,0,2.26,2,7.48,7.48,0,0,0,3.13.9,5.26,5.26,0,0,0,1.09-.24c2.42,2.15,3.86,4.41,3.58,8.25C184.18,415.67,181,419,169.82,418.73Z" style="opacity:0.30000000000000004"></path><path d="M167,392.71a47.27,47.27,0,0,0,8.15,7.74c2,3.26,1.18,4.07-.36,3s-6-7.84-9.77-13.3C165.71,391.06,166.38,391.91,167,392.71Z" style="fill:#37474f"></path><path d="M144.21,385.17c-1.49-.94-2.75-1.49-3.7-2.91-.24-2,.07-3.23,1-3.5l.07,1.77c1.79,2.28,3.57,2.89,5,4a28.46,28.46,0,0,1,3.91,4.34c3.82,4.95,4.58,7.24,8.62,11.39s7.76,5.69,7.5,6.52-1.79,1.7-5.56-1-8.5-9.13-10.44-12.56S146.3,386.49,144.21,385.17Z" style="fill:#37474f"></path><path d="M164.45,406.78a.59.59,0,0,0,.31-.12c3.19-2.61,5.33-3.64,10-3.75a.58.58,0,0,0,.56-.58.56.56,0,0,0-.58-.56c-4.9.11-7.28,1.22-10.67,4a.56.56,0,0,0-.08.81A.55.55,0,0,0,164.45,406.78Z" style="fill:#ebebeb"></path><path d="M161.19,403.2a.56.56,0,0,0,.3-.12,15.41,15.41,0,0,1,10.67-3.82.57.57,0,0,0,.57-.6.6.6,0,0,0-.6-.58,16.58,16.58,0,0,0-11.36,4.07.59.59,0,0,0,.42,1.05Z" style="fill:#ebebeb"></path><path d="M157,400a.64.64,0,0,0,.33-.14c3.73-2.9,6.54-4.1,11.95-4.24a.65.65,0,1,0,0-1.29c-5.68.15-8.75,1.43-12.71,4.51a.65.65,0,0,0-.11.91A.66.66,0,0,0,157,400Z" style="fill:#ebebeb"></path><path d="M154,396.51a.62.62,0,0,0,.33-.13c3.65-2.85,6.36-4,11.67-4.15a.64.64,0,0,0,.62-.65A.64.64,0,0,0,166,391c-5.57.14-8.55,1.4-12.43,4.42a.63.63,0,0,0,.46,1.13Z" style="fill:#ebebeb"></path><path d="M151.64,392.46a.72.72,0,0,0,.33-.13c3.66-2.85,6.36-4,11.68-4.15a.64.64,0,0,0,.61-.66.62.62,0,0,0-.65-.61c-5.58.14-8.55,1.4-12.42,4.41a.65.65,0,0,0-.12.9A.67.67,0,0,0,151.64,392.46Z" style="fill:#ebebeb"></path><path d="M160,317.43c-.15-20.69-5.49-29.81-11.7-33-6.12-3.42-17-.7-31.94,12-12.09,10.26-19.73,19.8-28.82,34-3.84,1.44-17,9-20.5,18A33.12,33.12,0,0,0,70.17,360c8.77,16.33,29.51,18.46,42.34,12.44,7.77-3.66,15.24-12.49,21.64-23,1.63,6.8,3,12,3,12A40,40,0,0,0,160.71,359S160.14,340.84,160,317.43Z" style="fill:#455a64"></path><path d="M140.51,361.75l.81.05c-1.26-6.29-2.5-12.12-3.61-17.31-2.44-11.42-4.37-20.44-4.6-25.95a77,77,0,0,1,.3-10.33c.24-2.91.36-4.37-.44-4.88-.59-.38-1.44,0-2.19.44-1.84,1.06-4.5,4.55-12,18.65-.52,1-1,2-1.58,3-6.51,12.34-14.58,27.65-27.8,26.79l-.59-.05c-8-.8-13.25-4.82-15.79-11.95l-.63.62C75,348,80.47,352.09,88.68,352.92c14.09,1.42,22.45-14.42,29.16-27.15l1.58-3c6.45-12,9.74-17.18,11.76-18.34,1-.57,1.29-.51,1.37-.46.4.25.25,2.06.08,4.15a79.92,79.92,0,0,0-.31,10.43c.24,5.58,2.17,14.62,4.62,26.08C138,349.79,139.27,355.54,140.51,361.75Z" style="opacity:0.2"></path><path d="M136.08,359.68c4.16,1.38,18.39,2.82,24.79-3.82l.25,8.2s-1.47,3.39-11.3,4.42-11.68-1-11.68-1Z" style="fill:#37474f"></path><path d="M134.15,349.41c-6.4,10.56-13.87,19.4-21.65,23-11.36,5.34-29.42,4.37-39.12-7.68,4.7,4.6,15.76,8.11,29.37,4.37,14.37-3.93,19.69-13.94,20.21-25.69.62-13.86,5.41-39.2,9.69-43.59a19.07,19.07,0,0,0-1.19,2.82c-5.66,18.56-2.31,24.24.4,36.7C132.67,343.13,133.45,346.51,134.15,349.41Z" style="opacity:0.2"></path></g><g id="freepik--Arm--inject-5"><g id="freepik--arm--inject-5"><path d="M136.9,291.89c1.88-1.24,3.48-2.41,5.56-3.91a8.2,8.2,0,0,0,1.7-1.54c.54-.74.49-2-.2-2.09a5.38,5.38,0,0,0-2,.35,26.52,26.52,0,0,0-4.13,1.69c1.19-.82,2.24-1.56,3.25-2.39a1.58,1.58,0,0,0,.44-2.21c-.36-.64-1.33-.66-3.15,0-.44-.46-1.62-.92-3.44-.13-.39-.47-1.62-.56-2.93,0s-2.12,1-3.39,1.59c-1.61.77-2.56,1.43-4.11,2.31-2.92,1.68-16.33,10.25-18.61,11.88-2.86,2.05-24.26,16.65-24.26,16.65s-4.16,3-7.05,12.18c-1.57,5-3.14,10.61,2,11.95s14.57-4.08,20.65-9.47c7.95-7.06,12.56-12.48,19.22-20.49a7.52,7.52,0,0,1,4.17-2.91,14.34,14.34,0,0,0,4.15-1.46,17.6,17.6,0,0,0,2.54-1.83,29,29,0,0,0,3.65-4.24c.42-.57.8-1.17,1.24-1.73A19.76,19.76,0,0,1,136.9,291.89Z" style="fill:#ffa8a7"></path><path d="M135,281.7c-1.11-.8-2.58-.08-3.66.47a88.46,88.46,0,0,0-10.17,5.94c-12.81,8.09-26.65,17.92-39.47,26,12.71-9.33,25.55-18.52,39.07-26.65a71.69,71.69,0,0,1,10.47-5.53c1.11-.5,2.7-1.13,3.76-.23Z" style="fill:#f28f8f"></path><path d="M138.39,281.83l-2.52,1.51c-.83.52-1.67,1-2.48,1.56L131,286.52l-2.44,1.65a25.6,25.6,0,0,1,2.23-1.94c.77-.61,1.57-1.17,2.4-1.72s1.68-1,2.56-1.48A21.6,21.6,0,0,1,138.39,281.83Z" style="fill:#f28f8f"></path><path d="M135,281.7c-.88.44-1.73.93-2.58,1.42l-2.52,1.51-2.53,1.52c-.84.5-1.69,1-2.55,1.48.76-.63,1.55-1.21,2.36-1.78s1.64-1.1,2.48-1.61,1.7-1,2.59-1.43A16,16,0,0,1,135,281.7Z" style="fill:#f28f8f"></path><path d="M121.05,304.58c-2.32-.32-3.73-2.48-4.29-.95s-.17,2.57-4.47,8.41c-1.47,2-4.37,5.7-6.7,8.72,3.74-3.9,7.18-8,10.89-12.47h0a7.67,7.67,0,0,1,2.38-2.19l.46-.25.19-.08.37-.16.18-.06a3.66,3.66,0,0,1,.59-.17l.7-.18h.06a16,16,0,0,0,2.17-.67h0A7.89,7.89,0,0,1,121.05,304.58Z" style="fill:#f28f8f"></path><path d="M141.1,284a1.56,1.56,0,0,0,.5-2.09,1.55,1.55,0,0,1-.64,1.51c-.85.62-3.21,1.93-5,3.11a11.7,11.7,0,0,0-2.69,2.47c.44-.26,3.59-2.13,4.57-2.61C139,285.57,140.09,284.83,141.1,284Z" style="fill:#f28f8f"></path></g><path d="M72.75,261.21c-15.19,3.89-15.42,18.48-13,31.45,2.64,13.88,11.55,42.38,14.74,44.55l16.57-15.08L84.33,289S79.68,265.22,72.75,261.21Z" style="fill:#ffa8a7"></path><path d="M87.89,306.41S78.05,311.66,76.24,322c4.2-8.2,6.26-8,12.32-12.31Z" style="fill:#f28f8f"></path></g></g></g></svg>
